<?xml version="1.0" standalone="no"?>
<!DOCTYPE svg PUBLIC "-//W3C//DTD SVG 20010904//EN"
 "http://www.w3.org/TR/2001/REC-SVG-20010904/DTD/svg10.dtd">
<svg version="1.0" xmlns="http://www.w3.org/2000/svg"
 width="247.000000pt" height="204.000000pt" viewBox="0 0 247.000000 204.000000"
 preserveAspectRatio="xMidYMid meet">

<g transform="translate(0.000000,204.000000) scale(0.100000,-0.100000)"
fill="#000000" stroke="none">
<path d="M1480 1805 c-96 -7 -176 -9 -178 -5 -6 14 -164 -49 -227 -91 -22 -14
-64 -38 -93 -53 -29 -15 -50 -31 -47 -37 4 -5 3 -9 -2 -8 -23 4 -40 -6 -94
-57 -32 -31 -56 -61 -52 -67 3 -5 1 -7 -4 -4 -13 8 -46 -27 -36 -38 5 -4 2 -5
-4 -1 -7 4 -13 2 -13 -3 0 -6 -7 -11 -15 -11 -8 0 -39 -12 -69 -26 -68 -32
-80 -59 -64 -140 9 -46 9 -57 -3 -65 -8 -4 -14 -16 -14 -26 0 -13 -12 -20 -50
-26 -47 -8 -51 -7 -72 20 -13 15 -23 32 -23 36 0 21 -64 98 -126 150 l-69 59
71 -69 c59 -56 154 -187 154 -212 0 -6 -86 -61 -97 -61 -3 0 -31 23 -62 52
-52 47 -157 106 -169 94 -3 -3 4 -8 14 -12 62 -22 105 -47 154 -91 l54 -50
-26 -31 c-15 -18 -29 -41 -33 -52 -4 -12 -15 -20 -29 -20 -26 0 -50 -22 -38
-34 4 -4 0 -6 -8 -4 -23 5 -20 -58 5 -107 11 -22 35 -48 54 -59 41 -24 172
-34 223 -17 44 14 63 7 78 -29 7 -16 34 -50 62 -76 l49 -46 -26 -40 c-15 -22
-24 -42 -21 -45 2 -3 11 8 20 24 32 64 43 60 55 -19 6 -40 16 -91 21 -113 l9
-40 -5 41 c-4 27 2 57 16 93 11 29 17 57 14 63 -4 7 -2 8 4 4 11 -6 16 5 13
26 0 3 7 5 16 4 32 -5 54 -50 67 -138 7 -48 18 -94 25 -102 14 -17 96 -37 144
-35 20 1 10 5 -27 10 -32 5 -62 11 -65 15 -12 12 -6 259 7 290 7 17 14 40 15
52 0 11 4 19 7 17 3 -1 10 3 17 10 9 10 7 20 -8 46 -44 78 -60 111 -56 116 3
2 22 -3 42 -12 21 -8 40 -13 42 -11 3 3 -18 13 -46 23 -57 20 -64 38 -30 81
16 21 28 26 62 25 l42 -1 -38 6 -39 7 26 24 c14 13 43 27 63 31 37 7 37 8 7 9
-21 1 -46 -10 -78 -34 -25 -20 -46 -40 -46 -45 0 -5 -12 -23 -26 -40 -23 -26
-32 -30 -58 -25 l-31 6 33 -15 c17 -8 32 -18 32 -21 0 -3 -4 -4 -9 0 -5 3 -26
-11 -47 -30 -20 -19 -41 -35 -47 -35 -5 0 -31 16 -56 36 l-46 36 45 -41 c39
-36 42 -41 25 -47 -11 -4 -36 -14 -55 -22 -19 -8 -70 -15 -114 -16 -73 -1 -76
0 -55 14 38 24 109 98 109 113 0 8 -3 29 -6 46 -6 30 -8 31 -58 31 -29 0 -74
-7 -100 -16 -46 -16 -48 -16 -71 6 -20 18 -32 22 -64 17 -40 -5 -40 -5 -28 22
14 33 53 68 124 112 54 32 63 34 144 34 82 0 88 -1 142 -38 61 -40 83 -49 46
-17 l-24 19 35 2 c19 1 49 5 65 9 18 5 2 6 -41 3 -53 -4 -78 -2 -101 10 -17 9
-49 19 -72 23 -31 5 -41 11 -41 25 0 23 17 24 41 3 27 -24 92 -29 130 -10 17
9 39 16 48 16 24 0 64 68 85 142 44 154 110 287 172 351 48 49 138 95 186 95
20 0 42 3 48 7 17 10 369 32 364 23 -9 -14 13 -8 26 7 10 12 9 15 -6 14 -11
-1 -98 -7 -194 -14z m-440 -139 c0 -2 -8 -10 -17 -17 -16 -13 -17 -12 -4 4 13
16 21 21 21 13z m-170 -99 c0 -2 -10 -12 -22 -23 l-23 -19 19 23 c18 21 26 27
26 19z m-99 -163 c15 -7 30 -10 34 -6 5 4 5 1 1 -6 -4 -7 -2 -19 4 -27 15 -19
6 -86 -16 -120 -9 -13 -16 -28 -17 -32 -1 -4 -7 -7 -13 -5 -7 1 -15 -2 -19 -8
-16 -26 -124 1 -143 37 -6 10 -8 31 -5 46 3 17 1 27 -7 27 -7 0 -9 8 -5 23 18
61 97 77 146 28 26 -27 28 -32 18 -61 -14 -39 -37 -48 -101 -40 -44 6 -48 5
-32 -7 41 -30 119 -8 142 40 18 38 8 63 -39 90 -21 13 -37 26 -34 29 11 10 60
6 86 -8z m89 -659 c4 3 6 -5 2 -17 -5 -20 -8 -19 -43 22 l-38 44 32 31 32 30
3 -58 c2 -32 7 -55 12 -52z m-45 -3 c31 -35 46 -68 64 -130 13 -45 21 -85 18
-89 -4 -3 -32 21 -63 53 -31 32 -61 58 -68 56 -6 -2 -8 -1 -4 3 4 4 -7 33 -23
65 -16 31 -29 60 -29 64 0 7 38 24 55 25 6 1 28 -20 50 -47z m-149 -22 c4 -16
10 -27 15 -24 5 3 6 -1 3 -9 -3 -8 2 -31 10 -51 26 -62 -16 -41 -91 47 -40 46
-41 54 -5 60 59 9 62 8 68 -23z"/>
<path d="M630 1355 c-17 -20 -8 -49 16 -53 24 -3 38 20 29 49 -8 23 -28 25
-45 4z"/>
<path d="M1623 1778 c-2 -5 -14 -8 -26 -8 -15 0 -18 -3 -10 -11 8 -8 17 -8 31
0 53 28 362 4 383 -30 3 -6 15 -9 25 -7 16 4 14 7 -11 17 -65 27 -146 40 -263
43 -68 2 -126 0 -129 -4z"/>
<path d="M1918 1713 c7 -3 16 -2 19 1 4 3 -2 6 -13 5 -11 0 -14 -3 -6 -6z"/>
<path d="M1868 1703 c6 -2 18 -2 25 0 6 3 1 5 -13 5 -14 0 -19 -2 -12 -5z"/>
<path d="M1755 1679 c-38 -11 -88 -21 -110 -24 -22 -2 -71 -12 -110 -20 -38
-8 -82 -18 -97 -21 -15 -4 -25 -10 -23 -14 3 -5 -3 -6 -13 -3 -22 5 -188 -74
-184 -88 1 -6 -2 -8 -6 -5 -13 8 -141 -84 -180 -128 -38 -43 -72 -107 -72
-135 0 -30 54 -68 114 -81 55 -11 130 -5 121 10 -3 5 3 6 13 3 23 -6 134 46
126 58 -3 5 -2 8 3 7 14 -5 73 24 67 33 -3 5 1 6 9 3 7 -2 45 6 83 20 85 30
180 57 191 54 4 -1 33 6 63 16 69 21 205 33 222 19 7 -6 31 -16 53 -23 22 -7
78 -30 124 -51 46 -21 88 -36 94 -32 6 3 7 1 3 -5 -4 -6 4 -16 16 -23 26 -14
34 -22 67 -64 12 -16 26 -29 29 -28 4 0 15 -3 25 -8 9 -6 -2 10 -26 34 -25 24
-62 70 -83 103 -22 32 -46 59 -54 59 -8 1 -14 7 -12 14 4 18 -28 52 -41 44 -5
-3 -7 -2 -4 4 6 9 -40 61 -49 56 -2 -2 -4 0 -5 5 -1 15 -33 42 -47 40 -9 -2
-16 6 -18 20 -3 18 0 22 13 18 10 -3 32 -8 48 -11 29 -6 29 -6 10 10 -31 27
-105 57 -121 51 -8 -3 -13 -2 -10 3 5 7 -97 46 -148 57 -29 5 -33 14 -12 30
25 17 18 17 -69 -7z m-665 -263 c0 -2 -8 -10 -17 -17 -16 -13 -17 -12 -4 4 13
16 21 21 21 13z m157 -46 c22 -13 34 -29 38 -52 8 -43 0 -104 -13 -101 -6 2
-27 -4 -46 -12 -54 -23 -121 -20 -146 7 -31 33 -26 54 6 29 37 -29 67 -26 103
10 22 21 31 40 31 62 0 40 -9 53 -40 66 -25 10 -25 10 5 10 17 1 44 -8 62 -19z
m-56 -10 c32 -18 16 -110 -20 -110 -9 0 -26 -3 -37 -6 -32 -9 -78 38 -70 70
11 44 82 69 127 46z m-18 -187 c-7 -2 -19 -2 -25 0 -7 3 -2 5 12 5 14 0 19 -2
13 -5z"/>
<path d="M1099 1329 c-9 -17 -8 -25 4 -37 9 -8 23 -12 31 -9 26 10 31 36 10
52 -26 19 -31 19 -45 -6z"/>
<path d="M1600 1277 c-39 -21 -114 -77 -102 -77 6 0 24 11 40 25 17 14 50 34
73 45 24 11 37 20 29 20 -8 0 -26 -6 -40 -13z"/>
<path d="M1580 1207 c-19 -8 -61 -39 -92 -71 -61 -60 -95 -70 -134 -41 -10 8
-34 15 -53 15 -29 0 -43 -8 -81 -50 -25 -27 -52 -50 -59 -50 -6 0 -26 7 -44
15 -30 15 -19 2 18 -20 19 -12 11 -42 -13 -48 -15 -4 -15 -5 1 -6 17 -1 18 -8
2 -96 -2 -11 -4 -25 -4 -31 -1 -8 -13 -7 -42 3 -23 7 -47 12 -53 10 -6 -2 11
-9 37 -15 26 -7 50 -18 52 -25 2 -6 6 -64 8 -128 4 -123 -3 -140 -40 -95 l-18
21 24 -20 c13 -11 4 5 -20 36 -24 31 -50 64 -57 75 -7 10 -5 5 3 -13 8 -18 15
-50 15 -73 0 -70 63 -226 88 -217 9 3 12 -7 12 -38 0 -17 -7 -29 -22 -35 -13
-5 -18 -9 -13 -10 6 0 39 -3 74 -6 36 -2 97 -11 135 -20 197 -42 241 -41 365
9 159 64 290 171 345 282 l35 70 1 -78 c0 -63 -5 -87 -25 -126 -13 -27 -21
-52 -17 -56 4 -5 1 -5 -5 -1 -12 7 -18 -6 -13 -29 1 -5 -2 -7 -6 -2 -8 8 -45
-43 -39 -54 3 -4 -3 -13 -13 -20 -16 -13 -16 -12 -2 6 13 18 12 18 -10 -2 -31
-27 -85 -49 -175 -73 -38 -11 -59 -19 -45 -19 14 -1 63 13 110 29 47 16 87 30
89 30 2 0 1 -54 -2 -120 l-6 -120 289 0 290 0 0 219 0 219 -36 64 c-45 79 -53
89 -68 81 -6 -3 -8 -3 -4 2 11 12 -21 67 -34 59 -6 -4 -8 -3 -5 3 7 12 -21 55
-32 49 -4 -3 -8 1 -8 7 0 23 -104 168 -115 161 -6 -4 -8 -3 -5 4 8 12 -50 65
-63 57 -4 -3 -14 3 -21 12 -8 9 -12 17 -9 19 11 5 -65 87 -116 125 -31 22 -53
43 -50 47 4 3 -26 23 -65 43 -58 31 -86 39 -148 44 -53 3 -87 1 -111 -8z m239
-45 c99 -57 113 -98 24 -70 -27 9 -49 12 -51 7 -2 -5 -10 -9 -17 -9 -7 0 -16
-8 -20 -17 -6 -16 -9 -15 -28 9 -65 80 -199 66 -260 -27 -12 -19 -25 -35 -28
-35 -3 0 -16 11 -29 25 l-23 25 24 0 c17 0 44 19 84 60 33 34 74 65 90 70 17
5 62 7 100 4 56 -4 82 -13 134 -42z m-150 -48 c33 -13 43 -25 66 -76 25 -55
27 -69 22 -133 -4 -39 -13 -90 -22 -114 -8 -24 -12 -48 -8 -54 3 -5 1 -7 -5
-3 -6 3 -14 -4 -17 -16 -14 -45 -44 -105 -59 -117 -18 -15 -14 -20 -42 67 -9
29 -18 51 -20 49 -2 -2 5 -31 15 -65 29 -89 43 -179 35 -215 -4 -18 -8 -41 -9
-51 -3 -28 -52 -66 -85 -66 -16 0 -48 7 -70 16 -32 13 -40 21 -41 43 l-1 26
-9 -27 c-7 -19 -28 -35 -67 -54 -56 -27 -69 -29 -147 -21 -22 3 -47 5 -57 6
-11 1 -15 7 -11 21 7 26 20 26 28 0 3 -11 11 -20 17 -20 6 0 6 6 -2 15 -10 12
-11 44 -5 133 4 64 8 134 8 155 1 20 5 37 10 37 4 0 7 9 7 20 0 24 38 128 49
135 11 6 102 -132 107 -163 3 -13 16 -57 29 -99 14 -42 25 -87 26 -102 l1 -26
8 27 c14 48 23 198 12 198 -6 0 -14 -9 -17 -21 -6 -18 -9 -16 -33 20 -15 22
-54 79 -86 128 -74 110 -93 153 -74 164 10 7 9 9 -3 9 -30 0 -31 60 -1 104 47
69 83 71 165 11 46 -35 61 -57 78 -120 5 -20 6 -11 3 30 -8 92 22 130 121 155
43 11 41 11 84 -6z m195 -49 c14 -14 29 -37 32 -51 8 -30 -1 -229 -11 -259 -6
-19 -6 -19 5 -2 11 17 15 10 36 -50 13 -37 27 -99 30 -137 l6 -68 -39 -40
c-35 -37 -109 -92 -125 -93 -3 0 -10 -3 -14 -8 -4 -4 -23 -8 -43 -8 l-36 -1
30 -7 30 -7 -40 -18 c-92 -41 -162 -60 -225 -60 -65 -1 -190 21 -189 33 0 3
26 18 57 33 49 24 59 25 72 13 9 -8 41 -17 73 -21 55 -7 57 -6 93 30 l37 37
22 -21 c12 -11 25 -20 31 -20 5 0 -6 12 -24 27 -32 24 -33 28 -27 71 4 25 15
57 26 71 25 34 69 166 69 206 0 44 21 145 30 145 7 0 36 -54 68 -130 8 -19 18
-66 23 -105 l8 -70 -3 73 c-2 40 1 75 5 78 5 3 9 11 9 17 0 7 -4 6 -10 -3 -11
-18 -10 -19 -44 60 -16 36 -35 72 -42 81 -8 9 -14 38 -14 66 0 27 -5 64 -11
82 -10 27 -8 34 13 56 30 32 61 32 92 0z m86 -1 c0 -8 -19 -13 -24 -6 -3 5 1
9 9 9 8 0 15 -2 15 -3z m-763 -92 c2 -16 -2 -22 -17 -22 -21 0 -24 8 -14 35 9
22 26 14 31 -13z"/>
<path d="M1476 900 c-22 -106 -46 -243 -43 -246 5 -5 35 132 44 199 3 26 10
44 14 40 5 -5 27 -43 49 -86 22 -43 40 -73 40 -67 0 12 -38 87 -74 145 -24 39
-25 39 -30 15z"/>
<path d="M1852 505 c0 -16 2 -22 5 -12 2 9 2 23 0 30 -3 6 -5 -1 -5 -18z"/>
<path d="M1817 408 c-10 -17 -16 -33 -13 -35 2 -3 12 9 21 27 21 41 15 48 -8
8z"/>
<path d="M1221 1130 c-24 -17 -39 -30 -34 -30 6 0 22 9 36 20 14 11 36 24 49
29 12 6 16 10 8 10 -8 0 -35 -13 -59 -29z"/>
<path d="M2347 1126 c4 -6 23 -33 44 -61 20 -27 45 -68 55 -89 10 -22 20 -34
22 -28 5 17 -98 189 -114 189 -7 0 -10 -5 -7 -11z"/>
<path d="M963 1084 c-17 -7 -46 -32 -64 -54 -24 -30 -40 -40 -63 -41 -31 -2
-31 -2 -3 -6 17 -3 25 -9 21 -16 -5 -8 -3 -8 7 1 7 6 24 13 39 13 16 1 19 3 8
6 -23 6 -23 14 3 47 24 30 54 45 114 56 l40 7 -35 1 c-19 0 -49 -6 -67 -14z"/>
<path d="M1053 963 c9 -2 25 -2 35 0 9 3 1 5 -18 5 -19 0 -27 -2 -17 -5z"/>
<path d="M731 926 c2 -2 22 -6 44 -9 28 -5 34 -4 20 3 -19 8 -73 14 -64 6z"/>
<path d="M615 460 c-4 -17 -5 -34 -2 -36 2 -3 7 10 11 27 8 42 0 50 -9 9z"/>
<path d="M524 381 c-22 -15 -47 -40 -57 -54 -19 -29 -23 -62 -6 -52 6 4 8 13
5 21 -8 21 66 90 102 96 28 4 30 2 29 -29 -1 -19 -6 -33 -13 -33 -7 0 -15 -3
-17 -7 -3 -5 18 -6 46 -4 29 3 43 6 32 9 -25 6 -35 20 -35 55 0 37 -34 36 -86
-2z"/>
<path d="M735 340 c-3 -5 -1 -10 4 -10 6 0 11 5 11 10 0 6 -2 10 -4 10 -3 0
-8 -4 -11 -10z"/>
<path d="M460 252 c0 -12 79 -52 101 -51 8 0 -4 7 -25 15 -22 8 -48 22 -58 31
-10 9 -18 11 -18 5z"/>
<path d="M651 222 c-35 -9 -60 -17 -54 -19 5 -2 36 3 68 12 33 8 71 15 86 15
28 0 32 -8 53 -85 3 -11 4 -4 2 15 -3 19 -7 43 -11 52 -5 14 1 17 32 21 21 2
4 4 -37 4 -41 1 -104 -6 -139 -15z"/>
<path d="M1233 193 c9 -2 23 -2 30 0 6 3 -1 5 -18 5 -16 0 -22 -2 -12 -5z"/>
<path d="M1288 183 c6 -2 18 -2 25 0 6 3 1 5 -13 5 -14 0 -19 -2 -12 -5z"/>
<path d="M1343 173 c9 -2 23 -2 30 0 6 3 -1 5 -18 5 -16 0 -22 -2 -12 -5z"/>
<path d="M1608 173 c12 -2 30 -2 40 0 9 3 -1 5 -23 4 -22 0 -30 -2 -17 -4z"/>
<path d="M810 57 l5 -62 3 54 c2 30 0 58 -5 62 -4 4 -6 -20 -3 -54z"/>
</g>
</svg>
